<svg width="18" height="18" viewBox="0 0 18 18" fill="none" xmlns="http://www.w3.org/2000/svg">
<path d="M2.25 6.75V6.15C2.25 5.31 2.25 4.89 2.4135 4.569C2.5575 4.28625 2.78625 4.0575 3.069 3.9135C3.39 3.75 3.81 3.75 4.65 3.75H13.35C14.19 3.75 14.61 3.75 14.9302 3.9135C15.213 4.0575 15.4425 4.28625 15.5865 4.569C15.75 4.88925 15.75 5.30925 15.75 6.14775V6.75M2.25 6.75H15.75M2.25 6.75V11.85C2.25 12.69 2.25 13.11 2.4135 13.431C2.55731 13.7132 2.78677 13.9427 3.069 14.0865C3.38925 14.25 3.80925 14.25 4.64775 14.25H13.3522C14.1907 14.25 14.61 14.25 14.9302 14.0865C15.213 13.9425 15.4425 13.713 15.5865 13.431C15.75 13.11 15.75 12.6915 15.75 11.853V6.75M4.5 11.25H7.5" stroke="#D8CDCD" stroke-linecap="round" stroke-linejoin="round"/>
</svg>
