<svg width="18" height="18" viewBox="0 0 18 18" fill="none" xmlns="http://www.w3.org/2000/svg">
<path d="M13.3725 3.1875H4.6275C4.227 3.1875 3.8925 3.1875 3.61875 3.21C3.33375 3.2325 3.06675 3.2835 2.81325 3.4125C2.42556 3.60995 2.11027 3.92498 1.9125 4.3125C1.7835 4.566 1.7325 4.833 1.71 5.118C1.6875 5.39175 1.6875 5.7255 1.6875 6.12675V11.8717C1.6875 12.273 1.6875 12.6067 1.71 12.8805C1.7325 13.1655 1.7835 13.4325 1.9125 13.6852C2.10993 14.0736 2.42525 14.3894 2.81325 14.5875C3.066 14.7158 3.33375 14.766 3.618 14.79C3.891 14.8117 4.2255 14.8118 4.6245 14.8118H13.3755C13.7752 14.8118 14.109 14.8117 14.3812 14.7892C14.6662 14.7668 14.9332 14.7157 15.186 14.5868C15.5744 14.389 15.8902 14.0734 16.0883 13.6852C16.2165 13.4325 16.2668 13.1655 16.2908 12.8812C16.3125 12.6082 16.3125 12.2745 16.3125 11.8748V6.1245C16.3125 5.72475 16.3125 5.391 16.29 5.118C16.2675 4.833 16.2165 4.566 16.0875 4.31325C15.8895 3.92542 15.574 3.61014 15.186 3.4125C14.9332 3.2835 14.6655 3.2325 14.3805 3.21C14.1082 3.1875 13.7723 3.1875 13.3725 3.1875ZM3.32475 4.4145C3.39225 4.38 3.49575 4.3485 3.711 4.33125C3.933 4.31325 4.221 4.3125 4.65075 4.3125H13.3507C13.7805 4.3125 14.0685 4.3125 14.2897 4.33125C14.505 4.3485 14.6078 4.38 14.676 4.4145C14.853 4.5045 14.9963 4.6485 15.0863 4.824C15.1207 4.8915 15.1523 4.995 15.1695 5.21025C15.1875 5.4315 15.1882 5.7195 15.1882 6.14775V6.1875H2.8125V6.15C2.8125 5.721 2.8125 5.43225 2.83125 5.21025C2.8485 4.995 2.88 4.89225 2.9145 4.824C3.0045 4.64775 3.1485 4.5045 3.32475 4.4145ZM4.5 10.6875H7.5C7.64918 10.6875 7.79226 10.7468 7.89775 10.8523C8.00324 10.9577 8.0625 11.1008 8.0625 11.25C8.0625 11.3992 8.00324 11.5423 7.89775 11.6477C7.79226 11.7532 7.64918 11.8125 7.5 11.8125H4.5C4.35082 11.8125 4.20774 11.7532 4.10225 11.6477C3.99676 11.5423 3.9375 11.3992 3.9375 11.25C3.9375 11.1008 3.99676 10.9577 4.10225 10.8523C4.20774 10.7468 4.35082 10.6875 4.5 10.6875Z" fill="#E8E5E5"/>
</svg>
