<svg width="20" height="20" viewBox="0 0 20 20" fill="none" xmlns="http://www.w3.org/2000/svg">
<path d="M9.16667 12.5H10.8333C11.2754 12.5 11.6993 12.3244 12.0118 12.0119C12.3244 11.6993 12.5 11.2754 12.5 10.8334C12.5 10.3913 12.3244 9.9674 12.0118 9.65484C11.6993 9.34228 11.2754 9.16669 10.8333 9.16669H8.33333C7.83333 9.16669 7.41667 9.33335 7.16667 9.66669L2.5 14.1667" stroke="#D8CDCD" stroke-width="0.833333" stroke-linecap="round" stroke-linejoin="round"/>
<path d="M5.83331 17.5L7.16665 16.3333C7.41665 16 7.83331 15.8333 8.33331 15.8333H11.6666C12.5833 15.8333 13.4166 15.5 14 14.8333L17.8333 11.1666C18.1549 10.8628 18.3426 10.4436 18.3551 10.0013C18.3676 9.55902 18.2039 9.12989 17.9 8.80832C17.5961 8.48674 17.1769 8.29906 16.7346 8.28656C16.2923 8.27405 15.8632 8.43776 15.5416 8.74165L12.0416 11.9916" stroke="#D8CDCD" stroke-width="0.833333" stroke-linecap="round" stroke-linejoin="round"/>
<path d="M1.66669 13.3333L6.66669 18.3333" stroke="#D8CDCD" stroke-width="0.833333" stroke-linecap="round" stroke-linejoin="round"/>
<path d="M13.3334 9.91665C14.668 9.91665 15.75 8.83467 15.75 7.49998C15.75 6.16529 14.668 5.08331 13.3334 5.08331C11.9987 5.08331 10.9167 6.16529 10.9167 7.49998C10.9167 8.83467 11.9987 9.91665 13.3334 9.91665Z" stroke="#D8CDCD" stroke-width="0.833333" stroke-linecap="round" stroke-linejoin="round"/>
<path d="M5 6.66669C6.38071 6.66669 7.5 5.5474 7.5 4.16669C7.5 2.78598 6.38071 1.66669 5 1.66669C3.61929 1.66669 2.5 2.78598 2.5 4.16669C2.5 5.5474 3.61929 6.66669 5 6.66669Z" stroke="#D8CDCD" stroke-width="0.833333" stroke-linecap="round" stroke-linejoin="round"/>
</svg>
