<svg width="18" height="18" viewBox="0 0 18 18" fill="none" xmlns="http://www.w3.org/2000/svg">
<path d="M10.3807 2.16523C9.98322 1.82998 9.47322 1.68298 8.98722 1.68748C8.50197 1.69273 7.99722 1.85023 7.60347 2.18398C7.19847 2.52748 6.93822 3.03598 6.93822 3.66673C6.93822 3.96223 6.74622 4.27273 6.41772 4.46773C6.09147 4.66123 5.73747 4.67773 5.47797 4.52623C5.47253 4.52288 5.46702 4.51963 5.46147 4.51648C4.90422 4.21648 4.33647 4.18048 3.83772 4.36348C3.35172 4.54198 2.97972 4.90798 2.75022 5.33098C2.29872 6.16573 2.34072 7.39423 3.38772 8.09998C3.39775 8.10681 3.40801 8.11332 3.41847 8.11948C3.65697 8.25823 3.82797 8.57848 3.82872 8.98198C3.82872 9.38473 3.65622 9.70498 3.41847 9.84373L3.41097 9.84898C2.87097 10.176 2.56047 10.6552 2.46747 11.1787C2.37747 11.688 2.49747 12.2002 2.74047 12.6187C2.98347 13.0365 3.36672 13.395 3.84897 13.5735C4.34397 13.7565 4.91097 13.7362 5.46147 13.44C5.46702 13.4368 5.47252 13.4336 5.47797 13.4302C5.76597 13.2622 6.10647 13.296 6.41697 13.5097C6.73872 13.7295 6.93822 14.0857 6.93822 14.4112C6.93822 15.0367 7.20372 15.534 7.61697 15.8625C8.01447 16.1782 8.51997 16.3162 8.99697 16.3125C9.47472 16.3087 9.97647 16.1632 10.3702 15.8475C10.7782 15.522 11.0482 15.03 11.0482 14.4112C11.0482 14.0692 11.2485 13.7122 11.562 13.497C11.8635 13.29 12.204 13.2532 12.5077 13.4302C12.5134 13.4333 12.5192 13.4363 12.525 13.4392C13.0875 13.743 13.665 13.7602 14.166 13.5667C14.652 13.3777 15.0337 13.0065 15.2715 12.5812C15.5085 12.1567 15.6255 11.6385 15.5287 11.1315C15.4297 10.611 15.1117 10.14 14.5612 9.83998C14.3265 9.69898 14.157 9.38023 14.157 8.97748C14.157 8.57248 14.3295 8.25148 14.5672 8.11273L14.5747 8.10748C15.1155 7.77973 15.426 7.30123 15.519 6.77773C15.609 6.26848 15.4882 5.75623 15.2452 5.33773C15.003 4.91998 14.619 4.56148 14.1375 4.38298C13.6425 4.19998 13.0747 4.22023 12.525 4.51648C12.5192 4.51962 12.5134 4.52287 12.5077 4.52623C12.2625 4.66873 11.9077 4.65673 11.574 4.46023C11.2395 4.26373 11.049 3.95473 11.0482 3.66673C11.0482 3.02623 10.7925 2.51098 10.3807 2.16523ZM6.56247 8.99998C6.56247 8.35351 6.81928 7.73353 7.2764 7.27641C7.73352 6.81929 8.3535 6.56248 8.99997 6.56248C9.64643 6.56248 10.2664 6.81929 10.7235 7.27641C11.1807 7.73353 11.4375 8.35351 11.4375 8.99998C11.4375 9.64644 11.1807 10.2664 10.7235 10.7236C10.2664 11.1807 9.64643 11.4375 8.99997 11.4375C8.3535 11.4375 7.73352 11.1807 7.2764 10.7236C6.81928 10.2664 6.56247 9.64644 6.56247 8.99998Z" fill="#E8E5E5"/>
</svg>
