<svg width="18" height="18" viewBox="0 0 18 18" fill="none" xmlns="http://www.w3.org/2000/svg">
<path d="M10.875 9C10.875 8.50272 10.6775 8.02581 10.3258 7.67417C9.97419 7.32254 9.49728 7.125 9 7.125C8.50272 7.125 8.02581 7.32254 7.67417 7.67417C7.32254 8.02581 7.125 8.50272 7.125 9C7.125 9.49728 7.32254 9.97419 7.67417 10.3258C8.02581 10.6775 8.50272 10.875 9 10.875C9.49728 10.875 9.97419 10.6775 10.3258 10.3258C10.6775 9.97419 10.875 9.49728 10.875 9Z" stroke="#D8CDCD" stroke-width="1.2" stroke-linecap="round" stroke-linejoin="round"/>
<path d="M7.50001 3.66753C7.50001 4.74378 6.14851 5.56803 5.19451 5.01153C3.49126 4.09428 2.19751 6.62028 3.70201 7.63353C4.62001 8.16903 4.62076 9.79353 3.70201 10.3298C2.07976 11.313 3.56026 13.8248 5.19451 12.9443C6.22876 12.3413 7.50076 13.3283 7.50076 14.4113C7.50076 16.2195 10.4858 16.173 10.4858 14.4113C10.4858 13.308 11.7383 12.33 12.7913 12.9443C14.4713 13.8495 15.9173 11.2103 14.2838 10.3298C13.3643 9.79353 13.365 8.16228 14.2838 7.62678C15.906 6.64353 14.4263 4.13178 12.7913 5.01153C11.859 5.55603 10.4865 4.73928 10.4858 3.66753C10.4858 1.74753 7.50076 1.80753 7.50076 3.66753" stroke="#D8CDCD" stroke-width="1.2" stroke-linecap="round" stroke-linejoin="round"/>
</svg>
