<svg width="18" height="18" viewBox="0 0 18 18" fill="none" xmlns="http://www.w3.org/2000/svg">
<path d="M15.285 2.595L12 1.5C12 2.29565 11.6839 3.05871 11.1213 3.62132C10.5587 4.18393 9.79562 4.5 8.99997 4.5C8.20432 4.5 7.44126 4.18393 6.87865 3.62132C6.31604 3.05871 5.99997 2.29565 5.99997 1.5L2.71497 2.595C2.37551 2.7081 2.08765 2.93881 1.90336 3.24551C1.71907 3.5522 1.65048 3.91467 1.70997 4.2675L2.14497 6.87C2.17353 7.04618 2.26398 7.20641 2.40007 7.32188C2.53617 7.43736 2.70899 7.50051 2.88747 7.5H4.49997V15C4.49997 15.825 5.17497 16.5 5.99997 16.5H12C12.3978 16.5 12.7793 16.342 13.0606 16.0607C13.3419 15.7794 13.5 15.3978 13.5 15V7.5H15.1125C15.291 7.50051 15.4638 7.43736 15.5999 7.32188C15.736 7.20641 15.8264 7.04618 15.855 6.87L16.29 4.2675C16.3495 3.91467 16.2809 3.5522 16.0966 3.24551C15.9123 2.93881 15.6244 2.7081 15.285 2.595Z" fill="#E8E5E5"/>
</svg>
